<?xml version="1.0" encoding="UTF-8" standalone="no"?>
<svg
   xmlns="http://www.w3.org/2000/svg"
   height="100%"
   width="100%"
   version="1.1"
   viewBox="0 -256 1850 1850">
  <g
     transform="matrix(1,0,0,-1,37.966102,1313.0508)">
    <path
       style="fill:currentColor"
       d="m 640,1152 h 512 v 128 H 640 V 1152 z M 1792,512 V 32 q 0,-66 -47,-113 -47,-47 -113,-47 H 160 Q 94,-128 47,-81 0,-34 0,32 V 512 H 672 V 352 q 0,-26 19,-45 19,-19 45,-19 h 320 q 26,0 45,19 19,19 19,45 v 160 h 672 z m -768,0 V 384 H 768 v 128 h 256 z m 768,480 V 608 H 0 v 384 q 0,66 47,113 47,47 113,47 h 352 v 160 q 0,40 28,68 28,28 68,28 h 576 q 40,0 68,-28 28,-28 28,-68 v -160 h 352 q 66,0 113,-47 47,-47 47,-113 z" />
  </g>
</svg>
