<svg xmlns="http://www.w3.org/2000/svg" viewBox="0 0 128 128">
  <path
      d="M94.5 59.71h19.594a4.751 4.751 0 100-3.5H94.5v-8.59h12.63a1.751 1.751 0 001.75-1.75V34.34h5.214a4.751 4.751 0 100-3.5h-6.964a1.751 1.751 0 00-1.75 1.75v11.53H94.5v-8.87a1.751 1.751 0 00-1.75-1.75h-8.87V22.62h11.53a1.751 1.751 0 001.75-1.75v-6.964a4.749 4.749 0 10-3.5 0v5.214H82.13a1.751 1.751 0 00-1.75 1.75V33.5h-8.59V13.907a4.749 4.749 0 10-3.5 0V33.5h-8.58V13.906a4.751 4.751 0 10-3.5 0V33.5h-8.59V20.87a1.751 1.751 0 00-1.75-1.75H34.34v-5.214a4.751 4.751 0 10-3.5 0v6.964a1.751 1.751 0 001.75 1.75h11.53V33.5h-8.87a1.751 1.751 0 00-1.75 1.75v8.87H22.62V32.59a1.751 1.751 0 00-1.75-1.75h-6.963a4.75 4.75 0 100 3.5h5.213v11.53a1.751 1.751 0 001.75 1.75H33.5v8.59H13.907a4.749 4.749 0 100 3.5H33.5v8.58H13.906a4.751 4.751 0 100 3.5H33.5v8.59H20.87a1.751 1.751 0 00-1.75 1.75v11.53h-5.214a4.751 4.751 0 100 3.5h6.964a1.751 1.751 0 001.75-1.75V83.88H33.5v8.87a1.751 1.751 0 001.75 1.75h8.87v10.88H32.59a1.751 1.751 0 00-1.75 1.75v6.964a4.749 4.749 0 103.5 0v-5.214h11.53a1.751 1.751 0 001.75-1.75V94.5h8.59v19.593a4.749 4.749 0 103.5 0V94.5h8.58v19.594a4.751 4.751 0 103.5 0V94.5h8.59v12.63a1.751 1.751 0 001.75 1.75h11.53v5.214a4.75 4.75 0 103.5 0v-6.964a1.751 1.751 0 00-1.75-1.75H83.88V94.5h8.87a1.751 1.751 0 001.75-1.75v-8.87h10.88v11.53a1.751 1.751 0 001.75 1.75h6.964a4.749 4.749 0 100-3.5h-5.214V82.13a1.751 1.751 0 00-1.75-1.75H94.5v-8.59h19.593a4.749 4.749 0 100-3.5H94.5zm24-3a1.25 1.25 0 11-1.25 1.25 1.252 1.252 0 011.25-1.252zm0-25.369a1.25 1.25 0 11-1.25 1.25 1.252 1.252 0 011.25-1.252zM95.411 8.25a1.25 1.25 0 11-1.25 1.25 1.252 1.252 0 011.25-1.25zm-25.369 0a1.25 1.25 0 11-1.25 1.25 1.252 1.252 0 011.25-1.25zm-12.084 0a1.25 1.25 0 11-1.25 1.25 1.251 1.251 0 011.25-1.25zm-25.369 0a1.25 1.25 0 11-1.25 1.25 1.251 1.251 0 011.25-1.25zM9.5 33.839a1.25 1.25 0 111.25-1.25 1.251 1.251 0 01-1.25 1.25zm0 25.369a1.25 1.25 0 111.25-1.25 1.251 1.251 0 01-1.25 1.25zm0 12.084a1.25 1.25 0 111.25-1.25 1.252 1.252 0 01-1.25 1.25zm0 25.369a1.25 1.25 0 111.25-1.25 1.252 1.252 0 01-1.25 1.25zm23.089 23.089a1.25 1.25 0 111.25-1.25 1.252 1.252 0 01-1.25 1.25zm25.369 0a1.25 1.25 0 111.25-1.25 1.252 1.252 0 01-1.25 1.25zm12.084 0a1.25 1.25 0 111.25-1.25 1.251 1.251 0 01-1.25 1.25zm25.369 0a1.25 1.25 0 111.25-1.25 1.251 1.251 0 01-1.25 1.25zM118.5 94.161a1.25 1.25 0 11-1.25 1.25 1.251 1.251 0 011.25-1.25zm0-25.369a1.25 1.25 0 11-1.25 1.25 1.251 1.251 0 011.25-1.25zM91 91H37V37h54z"/>
  <path
      d="M83.75 42.5h-39.5a1.751 1.751 0 00-1.75 1.75v39.5a1.751 1.751 0 001.75 1.75h39.5a1.751 1.751 0 001.75-1.75v-39.5a1.751 1.751 0 00-1.75-1.75zM82 82H46V46h36z"/>
  <path d="M77.75 66.583a1.751 1.751 0 001.75-1.75v-9.875a1.75 1.75 0 00-3.5 0v9.875a1.751 1.751 0 001.75 1.75z"/>
</svg>
