<svg xmlns="http://www.w3.org/2000/svg" viewBox="0 0 50 50">
  <path
      d="M38 41.5H12c-2.205 0-4-1.794-4-4v-26c0-2.206 1.795-4 4-4h26c2.206 0 4 1.794 4 4v26c0 2.206-1.794 4-4 4zm-26-32c-1.103 0-2 .897-2 2v26c0 1.103.897 2 2 2h26c1.103 0 2-.897 2-2v-26c0-1.103-.897-2-2-2H12z"/>
  <path
      d="M16.104 8.5a1 1 0 11-2 0V3.667a1 1 0 012 0V8.5zM20.063 8.5a1 1 0 01-2 0V3.667a1 1 0 112 0V8.5zM24.104 8.5a1 1 0 11-2 0V3.667a1 1 0 012 0V8.5zM28.104 8.5a1 1 0 01-2 0V3.667a1 1 0 112 0V8.5zM31.938 8.5a1 1 0 11-2 0V3.667a1 1 0 012 0V8.5zM35.896 8.5a1 1 0 01-2 0V3.667a1 1 0 112 0V8.5zM8.917 33.396a1 1 0 110 2H4.083a1 1 0 110-2h4.834zM8.917 29.438a1 1 0 110 2H4.083a1 1 0 110-2h4.834zM8.917 25.396a1 1 0 010 2.001H4.083a1 1 0 010-2.001h4.834zM8.917 21.396a1 1 0 010 2H4.083a1 1 0 110-2h4.834zM8.917 17.562a1 1 0 110 2H4.083a1 1 0 010-2h4.834zM8.917 13.604a1 1 0 010 2H4.083a1 1 0 110-2h4.834zM45.833 33.396a1 1 0 110 2h-4.832a1 1 0 110-2h4.832zM45.833 29.438a1 1 0 110 1.999h-4.832a1 1 0 01-1-1 .998.998 0 011-.999h4.832zM45.833 25.395a1 1 0 010 2.002h-4.832a1 1 0 010-2.002h4.832zM45.833 21.396a1 1 0 110 2h-4.832a1 1 0 110-2h4.832zM45.833 17.561a1 1 0 110 2h-4.832a1 1 0 110-2h4.832zM45.833 13.604a1 1 0 110 2h-4.832a1 1 0 110-2h4.832zM16.104 45.396a1 1 0 11-2 0v-4.834a1 1 0 012 0v4.834zM20.063 45.396a1 1 0 01-2 0v-4.834a1 1 0 112 0v4.834zM24.104 45.396a1 1 0 11-2 0v-4.834a1 1 0 012 0v4.834zM28.104 45.396a1 1 0 01-2 0v-4.834a1 1 0 112 0v4.834zM31.938 45.396a1 1 0 11-2 0v-4.834a1 1 0 012 0v4.834zM35.896 45.396a1 1 0 01-2 0v-4.834a1 1 0 112 0v4.834z"/>
</svg>
